<svg id="Capa_1" data-name="Capa 1" xmlns="http://www.w3.org/2000/svg" width="75" height="75.723" viewBox="0 0 75 75.723">
  <defs>
    <style>
      .cls-1 {
        fill: #e6e6e6;
      }

      .cls-2 {
        fill: #f2f2f2;
      }

      .cls-3 {
        fill: #fff;
      }

      .cls-4 {
        fill: #ccc;
      }
    </style>
  </defs>
  <g>
    <polygon class="cls-1" points="0.331 72.228 33.177 0.351 41.502 0.351 7.219 75.376 0.331 72.228"/>
    <path d="M903.1132,440.4583l-4.068,8.9034-14.54,31.8206-3.7431,8.1914-11.6662,25.5286-6.433-2.94,10.1323-22.1725,3.7431-8.1915,18.7993-41.14h7.7759m-8.0508-.601-.0463.101L876.0833,481.39l-3.7432,8.1914L862,512.2088l7.3426,3.3561,11.874-25.9834L884.96,481.39,899.5,449.57l4.3913-9.6112h-8.7838l-.0451-.101Z" transform="translate(-862 -439.8573)"/>
  </g>
  <g>
    <polygon class="cls-2" points="33.497 0.351 41.823 0.351 74.669 72.228 67.781 75.376 33.497 0.351"/>
    <path d="M903.6627,440.4583l18.7993,41.14,3.7431,8.1915,10.1323,22.1725-6.433,2.94-11.6662-25.5286-3.7431-8.1914-14.54-31.8206-4.0691-8.9034h7.777m.2749-.601-.0463.101h-8.7838L899.5,449.57,914.04,481.39l3.7431,8.1914,11.874,25.9834L937,512.2088l-10.34-22.6273-3.7432-8.1914-18.9328-41.4318-.0463-.101Z" transform="translate(-862 -439.8573)"/>
  </g>
  <g>
    <polygon class="cls-3" points="33.016 0.101 33.062 0 33.108 0.101 33.016 0.101"/>
    <polygon points="33.062 0 33.016 0.101 33.107 0.101 33.062 0 33.062 0"/>
  </g>
  <g>
    <polygon class="cls-3" points="41.984 0.101 41.891 0.101 41.938 0 41.984 0.101"/>
    <polygon points="41.938 0 41.891 0.101 41.984 0.101 41.938 0 41.938 0"/>
  </g>
  <g>
    <polygon class="cls-4" points="10.729 49.474 14.244 41.783 60.756 41.783 64.271 49.474 10.729 49.474"/>
    <path d="M922.5955,481.89l3.2862,7.1914H873.1183l3.2862-7.1914h46.191m.3212-.5H876.0833l-3.7432,8.1914h54.32l-3.7432-8.1914Z" transform="translate(-862 -439.8573)"/>
  </g>
  <g>
    <ellipse class="cls-4" cx="19.8086" cy="71.3307" rx="3.7241" ry="4.1426"/>
    <path d="M881.8085,507.2953a3.9177,3.9177,0,1,1-3.4741,3.8925,3.7055,3.7055,0,0,1,3.4741-3.8925m0-.5a4.4145,4.4145,0,1,0,3.9742,4.3925,4.199,4.199,0,0,0-3.9742-4.3925Z" transform="translate(-862 -439.8573)"/>
  </g>
  <g>
    <path class="cls-2" d="M894.123,506.8574a5.1556,5.1556,0,0,1,3.7784,1.126,3.7435,3.7435,0,0,1,1.1,2.7686,4.2548,4.2548,0,0,1-1.6172,3.4941,6.1577,6.1577,0,0,1-3.83,1.022h-3.0283v-.3623c1.1133-.1036,1.165-.1939,1.165-1.2554v-5.1626c0-1.1128-.1552-1.1646-1.165-1.2681v-.3623Zm-1.3071,6.69c0,.9707.4141,1.2422,1.3843,1.2422,2.3291,0,3.5195-1.5913,3.5195-3.8555a3.3651,3.3651,0,0,0-1.5009-3.1055,4.0918,4.0918,0,0,0-2.2125-.5176,1.8349,1.8349,0,0,0-1.0219.1807c-.1167.0781-.1685.22-.1685.7246Z" transform="translate(-862 -439.8573)"/>
    <path class="cls-2" d="M906.9717,513.2109c-.0777.336-.4268,1.669-.5567,2.0572h-6.288v-.3623c1.2031-.09,1.2939-.2071,1.2939-1.2681v-5.1113c0-1.1514-.1426-1.2159-1.1133-1.3067v-.3623h3.96c1.2158,0,1.7207-.0127,1.876-.0259.0126.3238.0644,1.294.1162,1.98l-.3877.0645a4.302,4.302,0,0,0-.3887-.9834c-.207-.4268-.5044-.5176-1.2808-.5176h-1.229c-.4013,0-.4272.0391-.4272.4141v2.8593h1.436c.9707,0,1.0352-.1938,1.1905-1.0737h.4013V512.24h-.4013c-.168-.9316-.2715-1.061-1.2032-1.061h-1.4233v2.5747c0,.9063.2847.9834.9316.9966h1.2036c.7891,0,.9185-.1167,1.2032-.4526a5.56,5.56,0,0,0,.6987-1.1905Z" transform="translate(-862 -439.8573)"/>
    <path class="cls-2" d="M915.7837,507.22c-.8667.1162-1.0869.2329-1.5527,1.3975-.3492.854-2.1353,5.1885-2.7691,6.793h-.4267c-.7637-2.0831-1.8765-5.1109-2.6143-7.0259-.3623-.9575-.582-1.0869-1.3711-1.1646v-.3623h3.2861v.3623c-.957.1035-1.0088.2588-.8281.7373.3237.9449,1.2686,3.52,2.0835,5.668.686-1.6694,1.54-3.7783,2.148-5.4092.2846-.75.1294-.8667-.9317-.9961v-.3623h2.9761Z" transform="translate(-862 -439.8573)"/>
  </g>
</svg>
